<svg version="1.1" id="Layer_1" xmlns="http://www.w3.org/2000/svg"
    xmlns:xlink="http://www.w3.org/1999/xlink" x="0px" y="0px"
    width="100%" viewBox="0 0 140 126" enable-background="new 0 0 140 126" xml:space="preserve">

<path fill="#0665BE" opacity="1.000000" stroke="none"
	d="
M45.377365,88.545532
	C50.332920,81.016640 54.845524,73.626747 59.913456,66.639648
	C62.432178,63.167110 62.085548,60.743107 59.772629,57.435833
	C54.159729,49.409870 48.932167,41.114422 43.210030,32.411480
	C46.142208,30.390200 48.915718,28.478292 52.312267,26.136900
	C55.147930,30.366707 57.787212,34.297981 60.420742,38.233109
	C65.134499,45.276611 69.935417,52.265026 74.469086,59.422676
	C75.242737,60.644093 75.598549,63.066078 74.909134,64.134247
	C67.617805,75.431320 60.075447,86.566376 51.995598,98.653694
	C50.398640,94.330818 42.039181,96.329071 45.377365,88.545532
z"/>
<path fill="#0564BE" opacity="1.000000" stroke="none"
	d="
M78.556961,85.539223
	C83.071884,78.715050 87.258568,72.107773 91.731354,65.700203
	C93.510406,63.151569 93.582115,61.278885 91.779205,58.656780
	C85.942696,50.168282 80.391800,41.483410 74.418892,32.399719
	C77.385666,30.360323 80.182243,28.437918 83.523727,26.140942
	C87.098671,31.456825 90.504570,36.500683 93.888817,41.559029
	C97.865982,47.503582 101.910187,53.406734 105.716019,59.459457
	C106.448059,60.623684 106.931831,62.861069 106.313843,63.817348
	C98.922096,75.255386 91.300507,86.544868 83.588829,98.098244
	C80.422485,96.021179 77.557640,94.141891 74.372940,92.052795
	C75.880135,89.692970 77.111778,87.764580 78.556961,85.539223
z"/>
</svg>