<svg version="1.1" id="Layer_1" xmlns="http://www.w3.org/2000/svg"
	xmlns:xlink="http://www.w3.org/1999/xlink" x="0px" y="0px"
	width="100%" viewBox="0 0 686 577" enable-background="new 0 0 686 577" xml:space="preserve">
<path fill="#CDDCF2" opacity="1.000000" stroke="none"
	d="
M0.999999,433.000000
	C1.000000,316.975922 1.000000,200.951843 1.411066,84.456238
	C2.315440,82.423004 2.828618,80.867249 3.299047,79.298676
	C9.478295,58.694866 19.724264,40.802551 36.544464,26.798498
	C51.017242,14.748847 67.152580,6.611006 85.589233,2.914469
	C86.164322,2.799162 86.534370,1.661203 87.000000,1.000001
	C258.024078,1.000000 429.048187,1.000000 600.214233,1.329724
	C607.772400,4.108391 615.385681,6.087250 622.565857,9.098774
	C640.556763,16.644575 655.802246,27.833265 667.444763,43.802509
	C676.129578,55.714729 682.374878,68.567917 685.122559,83.089409
	C685.199707,83.496758 686.350098,83.701027 687.000000,84.000000
	C687.000000,248.666672 687.000000,413.333344 686.995300,578.000000
	C685.325562,578.000000 683.660583,578.000000 681.815430,577.691772
	C681.309265,577.005737 681.055603,576.424683 680.646729,576.278992
	C644.776489,563.488403 608.884583,550.758301 573.017700,537.958374
	C559.548035,533.151428 546.257690,527.802551 532.647461,523.444397
	C524.889771,520.960388 517.676331,516.875610 508.979584,516.886719
	C380.000885,517.050964 251.021866,517.046936 122.043091,516.913452
	C111.373062,516.902405 100.628288,516.254395 90.050789,514.881287
	C68.068275,512.027588 49.045944,502.260651 32.955246,487.289093
	C17.392361,472.808685 6.768943,455.217560 2.894333,433.967041
	C2.817135,433.543671 1.655626,433.317932 0.999999,433.000000
M41.000000,203.500000
	C41.000000,272.818542 40.982651,342.137085 41.045631,411.455566
	C41.049191,415.370911 41.295433,419.378571 42.143078,423.184174
	C45.358627,437.620880 52.200008,449.837219 63.819801,459.461975
	C76.570984,470.023804 91.145897,475.854340 107.427834,475.879608
	C243.897369,476.091217 380.367371,475.990753 516.837219,476.059692
	C519.873718,476.061249 523.056274,476.525085 525.920898,477.504333
	C538.687195,481.868500 551.376343,486.460327 564.067322,491.042175
	C582.205139,497.590515 600.301453,504.254150 618.452576,510.765106
	C627.861816,514.140259 637.350891,517.292847 646.870422,520.568909
	C646.943298,520.025513 646.984863,519.860352 646.984863,519.695251
	C646.991760,381.059235 647.053650,242.423141 646.869202,103.787369
	C646.856934,94.607231 644.624451,85.505150 640.021606,77.287231
	C626.636963,53.390507 605.542175,41.264893 578.831482,41.196079
	C423.366821,40.795563 267.900604,40.977093 112.435051,41.084499
	C106.272667,41.088757 100.029083,41.908699 93.964668,43.080215
	C76.163239,46.519066 62.305161,56.327118 51.770302,70.816933
	C44.301674,81.089394 41.192863,93.036087 41.089634,105.522156
	C40.822392,137.846146 41.000000,170.173798 41.000000,203.500000
z"/>
</svg>